<mxfile host="65bd71144e">
    <diagram id="nOhy_NLnlNh6Pe5hT52M" name="Page-1">
        <mxGraphModel dx="659" dy="658" grid="1" gridSize="4" guides="1" tooltips="1" connect="1" arrows="1" fold="1" page="1" pageScale="1" pageWidth="850" pageHeight="1100" math="0" shadow="0">
            <root>
                <mxCell id="0"/>
                <mxCell id="1" parent="0"/>
                <mxCell id="3" value="" style="rounded=0;whiteSpace=wrap;html=1;shadow=0;sketch=1;fillColor=#FFFF00;strokeColor=#000000;" vertex="1" parent="1">
                    <mxGeometry x="112" y="144" width="224" height="112" as="geometry"/>
                </mxCell>
                <mxCell id="4" value="" style="rounded=0;whiteSpace=wrap;html=1;shadow=0;sketch=1;fillColor=#FFFF00;strokeColor=#000000;fontFamily=Comic Sans MS;" vertex="1" parent="1">
                    <mxGeometry x="112" y="304" width="224" height="112" as="geometry"/>
                </mxCell>
                <mxCell id="5" value="" style="endArrow=classic;html=1;exitX=0.5;exitY=1;exitDx=0;exitDy=0;entryX=0.5;entryY=0;entryDx=0;entryDy=0;sketch=1;" edge="1" parent="1" source="3" target="4">
                    <mxGeometry width="50" height="50" relative="1" as="geometry">
                        <mxPoint x="272" y="358" as="sourcePoint"/>
                        <mxPoint x="322" y="308" as="targetPoint"/>
                    </mxGeometry>
                </mxCell>
                <mxCell id="7" value="" style="rounded=0;whiteSpace=wrap;html=1;shadow=0;sketch=1;fillColor=#FFFF33;strokeColor=#000000;fontFamily=Comic Sans MS;" vertex="1" parent="1">
                    <mxGeometry x="112" y="464" width="224" height="112" as="geometry"/>
                </mxCell>
                <mxCell id="8" value="" style="endArrow=classic;html=1;sketch=1;fontFamily=Comic Sans MS;fontColor=#000066;exitX=0.5;exitY=1;exitDx=0;exitDy=0;entryX=0.5;entryY=0;entryDx=0;entryDy=0;" edge="1" parent="1" source="4" target="7">
                    <mxGeometry width="50" height="50" relative="1" as="geometry">
                        <mxPoint x="272" y="354" as="sourcePoint"/>
                        <mxPoint x="322" y="304" as="targetPoint"/>
                    </mxGeometry>
                </mxCell>
                <mxCell id="9" value="" style="endArrow=classic;html=1;sketch=1;fontFamily=Comic Sans MS;fontColor=#000066;exitX=1;exitY=0.5;exitDx=0;exitDy=0;edgeStyle=orthogonalEdgeStyle;entryX=1;entryY=0.5;entryDx=0;entryDy=0;" edge="1" parent="1" source="7" target="3">
                    <mxGeometry width="50" height="50" relative="1" as="geometry">
                        <mxPoint x="272" y="354" as="sourcePoint"/>
                        <mxPoint x="432" y="236" as="targetPoint"/>
                        <Array as="points">
                            <mxPoint x="444" y="520"/>
                            <mxPoint x="444" y="200"/>
                        </Array>
                    </mxGeometry>
                </mxCell>
                <mxCell id="10" value="interatate on the &lt;br style=&quot;font-size: 12px;&quot;&gt;given flow 2-3 &lt;br style=&quot;font-size: 12px;&quot;&gt;times at least" style="edgeLabel;html=1;align=center;verticalAlign=middle;resizable=0;points=[];fontFamily=Comic Sans MS;fontColor=#000000;labelBackgroundColor=default;fontSize=12;" vertex="1" connectable="0" parent="9">
                    <mxGeometry x="-0.0323" y="2" relative="1" as="geometry">
                        <mxPoint x="-1" y="-5" as="offset"/>
                    </mxGeometry>
                </mxCell>
                <mxCell id="11" value="&lt;span style=&quot;font-size: 11px&quot;&gt;State the problem clearly and define goals. Ensure the the problem is important enough to employ the critical thinking&amp;nbsp; &amp;nbsp;&lt;/span&gt;" style="text;html=1;strokeColor=none;fillColor=none;align=left;verticalAlign=top;whiteSpace=wrap;rounded=0;shadow=0;labelBackgroundColor=none;sketch=1;fontFamily=Comic Sans MS;fontSize=12;fontColor=#000000;" vertex="1" parent="1">
                    <mxGeometry x="126" y="168" width="196" height="69" as="geometry"/>
                </mxCell>
                <mxCell id="12" value="&lt;span style=&quot;font-size: 13px;&quot;&gt;1. Problem Statement&lt;/span&gt;" style="text;html=1;strokeColor=none;fillColor=none;align=left;verticalAlign=top;whiteSpace=wrap;rounded=0;shadow=0;labelBackgroundColor=none;sketch=1;fontFamily=Comic Sans MS;fontSize=13;fontColor=#000000;" vertex="1" parent="1">
                    <mxGeometry x="112" y="140" width="196" height="28" as="geometry"/>
                </mxCell>
                <mxCell id="13" value="&lt;span style=&quot;font-size: 11px&quot;&gt;List facts and observation and state the certainty level of each item in the list.&amp;nbsp;&lt;/span&gt;" style="text;html=1;strokeColor=none;fillColor=none;align=left;verticalAlign=top;whiteSpace=wrap;rounded=0;shadow=0;labelBackgroundColor=none;sketch=1;fontFamily=Comic Sans MS;fontSize=12;fontColor=#000000;" vertex="1" parent="1">
                    <mxGeometry x="126" y="327" width="196" height="69" as="geometry"/>
                </mxCell>
                <mxCell id="14" value="&lt;span style=&quot;font-size: 13px&quot;&gt;2. List facts and observation&lt;/span&gt;" style="text;html=1;strokeColor=none;fillColor=none;align=left;verticalAlign=top;whiteSpace=wrap;rounded=0;shadow=0;labelBackgroundColor=none;sketch=1;fontFamily=Comic Sans MS;fontSize=13;fontColor=#000000;" vertex="1" parent="1">
                    <mxGeometry x="112" y="299" width="196" height="28" as="geometry"/>
                </mxCell>
                <mxCell id="15" value="&lt;span style=&quot;font-size: 11px&quot;&gt;Use logical reasoning to solve the problem. Ensure that you can explain every step of your logic. Avoid baises, emotions and wrong beliefs&amp;nbsp;&lt;/span&gt;" style="text;html=1;strokeColor=none;fillColor=none;align=left;verticalAlign=top;whiteSpace=wrap;rounded=0;shadow=0;labelBackgroundColor=none;sketch=1;fontFamily=Comic Sans MS;fontSize=12;fontColor=#000000;" vertex="1" parent="1">
                    <mxGeometry x="126" y="487" width="196" height="69" as="geometry"/>
                </mxCell>
                <mxCell id="16" value="&lt;span style=&quot;font-size: 13px&quot;&gt;3. Solve the problem&lt;/span&gt;" style="text;html=1;strokeColor=none;fillColor=none;align=left;verticalAlign=top;whiteSpace=wrap;rounded=0;shadow=0;labelBackgroundColor=none;sketch=1;fontFamily=Comic Sans MS;fontSize=13;fontColor=#000000;" vertex="1" parent="1">
                    <mxGeometry x="112" y="459" width="196" height="28" as="geometry"/>
                </mxCell>
            </root>
        </mxGraphModel>
    </diagram>
</mxfile>